<svg xmlns="http://www.w3.org/2000/svg" width="287.153" height="244.748" viewBox="0 0 287.153 244.748">
    <defs>
        <style>
            .cls-1{fill:#d2dceb}.cls-14,.cls-2{fill:none}.cls-2{stroke:#42c8b7;stroke-miterlimit:10;stroke-width:2px}.cls-3{fill:#11374d}.cls-4{fill:#f2f2f2}.cls-12,.cls-13,.cls-5{fill:#42c8b7}.cls-6{fill:#1abea3}.cls-7{fill:#174159}.cls-8{fill:#2e546a}.cls-9{fill:#f7f7f7}.cls-10{fill:#dcdcdc}.cls-11{fill:#2d8837}.cls-11,.cls-12{fill-rule:evenodd}.cls-13{opacity:.297}.cls-14{stroke:#0b334c;stroke-linecap:round;stroke-linejoin:round;stroke-width:.707px}
        </style>
    </defs>
    <g id="Group_7588" data-name="Group 7588" transform="translate(6431.296 22494.371)">
        <g id="undraw_Mobile_app_p3ts" transform="translate(-6428 -22506)">
            <path id="Subtraction_2"
                  d="M138.411 265.735a28.95 28.95 0 0 1-22.231-10.36l-81.77-97.449a28.977 28.977 0 0 1 3.575-40.856L136.8 34.151a29 29 0 0 1 40.856 3.574l5.161 6.15a21.681 21.681 0 0 0-1.839 32 20.969 20.969 0 0 0 6.693 4.6 20.775 20.775 0 0 0 22.487-4.01l49.268 58.715a28.976 28.976 0 0 1-3.574 40.856l-98.82 82.92a28.883 28.883 0 0 1-18.625 6.785z"
                  class="cls-1" data-name="Subtraction 2" transform="translate(-30.92 -15.736)"/>
            <circle id="Ellipse_1684" cx="5.034" cy="5.034" r="5.034" class="cls-2" data-name="Ellipse 1684"
                    transform="translate(206.27 14.382)"/>
            <circle id="Ellipse_1685" cx="5.034" cy="5.034" r="5.034" class="cls-2" data-name="Ellipse 1685"
                    transform="translate(272.79 160.725)"/>
            <circle id="Ellipse_1686" cx="5.034" cy="5.034" r="5.034" class="cls-2" data-name="Ellipse 1686"
                    transform="translate(53.195 27.004)"/>
            <ellipse id="Ellipse_1687" cx="18.528" cy="18.028" class="cls-1" data-name="Ellipse 1687" rx="18.528"
                     ry="18.028" transform="translate(148 26.137)"/>
            <circle id="Ellipse_1688" cx="12.553" cy="12.553" r="12.553" class="cls-3" data-name="Ellipse 1688"
                    transform="translate(223.831 67.583)"/>
            <path id="Path_23965" d="M721.453 693.428l2.388 10.234h-5.8l-2.388-11.6z" class="cls-4"
                  data-name="Path 23965" transform="translate(-471.525 -455.983)"/>
            <path id="Path_23966" d="M639.453 696.064v9.552l-5.8.682v-10.234z" class="cls-4" data-name="Path 23966"
                  transform="translate(-417.498 -458.618)"/>
            <path id="Path_23967"
                  d="M806.834 450.8s-.682 14.668-1.365 15.692-6.822 15.692-6.822 15.692l-3.07-9.552s4.776-7.846 4.094-12.281a50.979 50.979 0 0 1-.252-9.892z"
                  class="cls-4" data-name="Path 23967" transform="translate(-555.201 -321.832)"/>
            <circle id="Ellipse_1689" cx="9.552" cy="9.552" r="9.552" class="cls-4" data-name="Ellipse 1689"
                    transform="translate(222.637 74.387)"/>
            <path id="Path_23968"
                  d="M772.175 322.456s-.341 13.645 2.047 15.692-13.645.341-13.645.341 3.411-9.552.682-11.6 10.916-4.433 10.916-4.433z"
                  class="cls-4" data-name="Path 23968" transform="translate(-532.14 -237.494)"/>
            <path id="Path_23969"
                  d="M718.135 360.825s2.047-3.752 4.776-3.411 11.6 1.023 11.94 1.706a20.373 20.373 0 0 0 2.047 3.752c.682.682 5.8 1.706 6.14 5.8s-12.281 29-12.281 29 1.706 5.8 1.365 7.164 1.706 5.458 1.365 7.164 5.117 11.939 2.388 25.243v21.491s9.21 37.183 6.481 39.912-11.939 1.023-13.645 0-8.869-52.533-8.869-52.533l-3.411-17.4-.341 38.206s.682 32.066-1.706 33.089-11.6 1.365-12.28-.682c-.532-1.6-3.139-44.07-4.261-62.687a69.555 69.555 0 0 1 1.5-19.163c1.42-6.44 3.481-14.006 5.829-17.076 4.435-5.8 7.164-24.22 7.164-24.22l-5.8-10.575s3.411-3.411 5.458-3.411a28.111 28.111 0 0 0 6.141-1.369z"
                  class="cls-5" data-name="Path 23969" transform="translate(-490.722 -260.512)"/>
            <path id="Path_23970"
                  d="M811.72 383.456l1.8 1.224s1.271 21.972.248 23.337-8.138.7-8.674-.5 6.626-24.061 6.626-24.061z"
                  class="cls-6" data-name="Path 23970" transform="translate(-561.452 -277.685)"/>
            <path id="Path_23971"
                  d="M675.9 438.336c1 6.927 1.874 13.094-3.232 18.672a95.807 95.807 0 0 1-17.238 14.932c-.626 1.659-9.819 13.84-10.287 8.981s2.709-8.668 7.222-12.777 10.828-13.024 14.391-17.916 2.1-7.942 1.972-12.028 5.772.185 7.172.136z"
                  class="cls-4" data-name="Path 23971" transform="translate(-456.057 -312.587)"/>
            <path id="Path_23972"
                  d="M715.3 781.255s-.341 3.821-1.364 4.844-3.752 2.388-3.411 6.14 2.558 3.923 2.558 3.923l-.171-.853 1.023.341.171.512h9.552a30.754 30.754 0 0 0-.171-5.287c-.341-1.706-.341-9.893-1.365-9.552s-3.752.682-4.435 2.047-2.732.887-2.387-2.115z"
                  class="cls-7" data-name="Path 23972" transform="translate(-499.14 -539.785)"/>
            <path id="Path_23973"
                  d="M810.352 781.255s.341 3.821 1.365 4.844 3.752 2.388 3.411 6.14-2.558 3.923-2.558 3.923l.171-.853-1.023.341-.171.512h-9.551a30.752 30.752 0 0 1 .171-5.287c.341-1.706.341-9.893 1.365-9.552s3.752.682 4.435 2.047 2.726.887 2.385-2.115z"
                  class="cls-7" data-name="Path 23973" transform="translate(-559.401 -539.785)"/>
            <path id="Path_23974"
                  d="M719.967 378.456l-4.776 1.023s0 7.5-1.365 10.575-3.752 10.234-2.729 10.575 10.575 5.117 11.257 2.388 2.389-24.561-2.387-24.561z"
                  class="cls-6" data-name="Path 23974" transform="translate(-499.377 -274.391)"/>
            <circle id="Ellipse_1690" cx="12.553" cy="12.553" r="12.553" class="cls-3" data-name="Ellipse 1690"
                    transform="translate(237.431 51.054)"/>
            <path id="Path_23975"
                  d="M818.042 267.654a12.554 12.554 0 0 1-19.386-6.592 12.554 12.554 0 1 0 24.488-5.148 12.549 12.549 0 0 1-5.102 11.74z"
                  class="cls-3" data-name="Path 23975" transform="translate(-557.23 -193.651)"/>
            <circle id="Ellipse_1691" cx="9.206" cy="9.206" r="9.206" class="cls-7" data-name="Ellipse 1691"
                    transform="translate(230.526 73.023)"/>
            <ellipse id="Ellipse_1692" cx="8.16" cy="6.381" class="cls-7" data-name="Ellipse 1692" rx="8.16" ry="6.381"
                     transform="translate(223.831 72.395)"/>
            <ellipse id="Ellipse_1693" cx="1.549" cy="2.74" class="cls-4" data-name="Ellipse 1693" rx="1.549" ry="2.74"
                     transform="translate(228.266 82.575)"/>
        </g>
        <g id="Group_7587" data-name="Group 7587" transform="translate(-6380.539 -22468.689)">
            <path id="Path_23959"
                  d="M226.886 182.771h82.08a17.449 17.449 0 0 1 17.021 13.611l41.474 183.958a14.1 14.1 0 0 1-13.061 17.187l-84.379 4.157a18.631 18.631 0 0 1-19.25-15.292l-23.528-130.06-1.75.5-4.5-24.651 1.8-.45-6.567-36.3a10.743 10.743 0 0 1 10.66-12.655z"
                  class="cls-8" data-name="Path 23959" transform="translate(-216.054 -182.771)"/>
            <path id="Path_23960"
                  d="M313.806 194.4h9.581a12.058 12.058 0 0 1 11.781 9.488l39.809 182.457a7.472 7.472 0 0 1-6.811 9.049L284.06 400.9a9.677 9.677 0 0 1-10.156-7.941l-33.969-188.584a8.476 8.476 0 0 1 8.341-9.978h9.089a4 4 0 0 1 3.862 2.96 3.531 3.531 0 0 0 3.41 2.613h43.15a6.036 6.036 0 0 0 6.019-5.573z"
                  class="cls-9" data-name="Path 23960" transform="translate(-231.7 -190.431)"/>
            <path id="Path_23962" d="M225.274 427.9l1.977-2.637-.343-.257-1.709 2.278-6.586-5.388-.271.332z"
                  class="cls-10" data-name="Path 23962" transform="translate(-186.545 -315.287)"/>
            <path id="Rectangle_12089" d="M0 0h91.123v.429H0z" class="cls-10" data-name="Rectangle 12089"
                  transform="rotate(-1.213 5427.251 -1400.794)"/>
            <path id="Rectangle_12090" d="M0 0h92.842v.429H0z" class="cls-10" data-name="Rectangle 12090"
                  transform="matrix(1 -.023 .023 1 31.941 127.436)"/>
            <g id="Group_7585" data-name="Group 7585" transform="rotate(-6 440.513 -423.175)">
                <path id="Path_21"
                      d="M12.91 6.671L11.381 8.2l-2.6 2.607a1.254 1.254 0 0 1-.7.385l-.036.015-.055.02h-.181l-.051-.016c-.013 0-.03-.011-.043-.014a.058.058 0 0 1-.017-.009 1.161 1.161 0 0 1-.633-.33c-.34-.343-.683-.685-1.025-1.027-.837-.839-1.7-1.7-2.55-2.557a1.552 1.552 0 0 1-.37-1.724 1.552 1.552 0 0 1 1.43-1.029h.1a1.545 1.545 0 0 1 1.1.471c.347.342.692.689 1.036 1.033L7.9 7.132 12.425 2.6l.18-.181c.133-.132.274-.269.406-.408a.414.414 0 0 0 .039-.035A7.845 7.845 0 1 0 14.982 4.6L12.91 6.671"
                      class="cls-11" data-name="Path 21" transform="translate(7.922 8.186)"/>
                <path id="Path_22"
                      d="M17.207 32.175a18.138 18.138 0 0 1-11.894-4.266 15.106 15.106 0 0 1-5.256-10.2A16.652 16.652 0 0 1 3.365 6.216 15.64 15.64 0 0 1 13.4.234 18.834 18.834 0 0 1 16.309 0a15.547 15.547 0 0 1 11.148 4.7 2.447 2.447 0 0 1 .719 2.43 2.611 2.611 0 0 1-2.462 1.838 3.02 3.02 0 0 1-2.017-.99 11.207 11.207 0 0 0-7.624-3.018 11.143 11.143 0 0 0-7.7 19.147 11.171 11.171 0 0 0 7.741 3.122 11.007 11.007 0 0 0 7.435-2.889 3.327 3.327 0 0 1 2.163-1.118 2.309 2.309 0 0 1 .548.07 2.548 2.548 0 0 1 1.912 1.76 2.426 2.426 0 0 1-.685 2.413 15.229 15.229 0 0 1-10.275 4.71"
                      class="cls-12" data-name="Path 22"/>
            </g>
        </g>
        <g id="Group_7586" data-name="Group 7586" transform="translate(-6412.067 -22336.977)">
            <g id="Group_7260" data-name="Group 7260">
                <g id="Group_7257" data-name="Group 7257" transform="translate(22.147 6.701)">
                    <path id="Path_23731"
                          d="M1113.964-331.382s-8.491-20.477-4.445-38.259a4.326 4.326 0 0 1 8.039-1.03c3.918 7.489 8.043 20.367 3.511 37.259z"
                          class="cls-13" data-name="Path 23731" transform="translate(-1108.426 372.98)"/>
                    <path id="Line_939" d="M0 0l3.232 28.876" class="cls-14" data-name="Line 939"
                          transform="translate(5.007 4.216)"/>
                </g>
                <g id="Group_7258" data-name="Group 7258" transform="translate(0 3.856)">
                    <path id="Path_23732"
                          d="M1112.721-337.971c-2.778-6.507-6.839-12.429-9.326-19.053-2.588-6.892-4.176-15.371-10.837-18.5a5.5 5.5 0 0 0-3.231-.6c-1.8.313-3.089 1.894-3.942 3.5a16.96 16.96 0 0 0 .208 15.952c1.48 2.629 3.7 4.91 4.458 7.831 1.856 7.129-5.615 14.958-2.146 21.457 1.638 3.069 5.215 4.539 8.614 5.279s6.987 1.021 10.032 2.706c4.984 2.76 7.644 4.265 8.75-2.558.881-5.443-.443-11.01-2.58-16.014z"
                          class="cls-5" data-name="Path 23732" transform="translate(-1083.495 376.182)"/>
                    <path id="Path_23733"
                          d="M1090.038-368.245c5.16 4.434 7.2 11.6 7.338 18.4.077 3.82-.353 7.707.554 11.419 1.718 7.035 7.8 12.013 13.532 16.434"
                          class="cls-14" data-name="Path 23733" transform="translate(-1084.226 375.296)"/>
                </g>
                <g id="Group_7259" data-name="Group 7259" transform="translate(28.399)">
                    <path id="Path_23734"
                          d="M1115.783-331.839c1.128-5 4.151-9.322 7.147-13.476s6.089-8.408 7.4-13.358c1.43-5.395.6-11.126-.71-16.549a5.435 5.435 0 0 1-.151-3.091c.591-1.636 2.609-2.261 4.348-2.207 6.662.207 11.552 7.167 11.723 13.83s-3.144 12.889-6.751 18.5-7.674 11.118-9.335 17.574c-.995 3.864-2.333 15.269-9 13.4-4.876-1.384-5.527-10.841-4.671-14.623z"
                          class="cls-5" data-name="Path 23734" transform="translate(-1115.465 380.524)"/>
                    <path id="Path_23735"
                          d="M1135.885-374.613c2.061 4.863 1.214 10.514-.716 15.43s-4.869 9.369-7.117 14.149a55.009 55.009 0 0 0-5.182 21.343"
                          class="cls-14" data-name="Path 23735" transform="translate(-1116.291 379.864)"/>
                </g>
            </g>
            <path id="Path_23736" d="M1123.5-285.889h-17.252l-3.721-28.077h24.695z" class="cls-7" data-name="Path 23736"
                  transform="translate(-1085.621 373.091)"/>
        </g>
    </g>
</svg>
